<svg width="129" height="98" viewBox="0 0 129 98" fill="none" xmlns="http://www.w3.org/2000/svg">
<path d="M19.0889 95.4973C19.0889 95.4973 14.666 69.7104 41.2038 69.7104C48.1921 73.8562 54.1631 76.7721 60.8418 76.8316H61.1071C67.7858 76.7721 73.7789 73.8562 80.7451 69.7104C81.0768 69.7104 81.3864 69.7105 81.696 69.7303" stroke="#007050" stroke-width="4.25979" stroke-linecap="round" stroke-linejoin="round"/>
<path d="M94.6328 73.2217C105.469 80.2635 102.86 95.4976 102.86 95.4976" stroke="#007050" stroke-width="4.25979" stroke-linecap="round" stroke-linejoin="round"/>
<path d="M30.3047 71.5923V95.8002" stroke="#007050" stroke-width="4.25979" stroke-linecap="round" stroke-linejoin="round"/>
<path d="M91.1006 76.9194V95.8" stroke="#007050" stroke-width="4.25979" stroke-linecap="round" stroke-linejoin="round"/>
<path d="M41.668 70.2096V95.8001L80.2562 95.7723V70.1699" stroke="#007050" stroke-width="4.25979" stroke-linecap="round" stroke-linejoin="round"/>
<path d="M17.6036 53.0443C14.8985 51.5074 14.91 48.8601 16.6235 46.4337C18.3369 44.0074 20.843 43.086 23.5483 44.6229" stroke="#007050" stroke-width="4.25979" stroke-linecap="round" stroke-linejoin="round"/>
<path d="M23.2825 58.1383C23.2825 59.1459 22.9495 60.1308 22.3254 60.9685C21.7014 61.8063 20.8144 62.4592 19.7766 62.8448C18.7389 63.2304 17.5969 63.3313 16.4952 63.1348C15.3935 62.9382 14.3815 62.453 13.5873 61.7406C12.793 61.0282 12.2521 60.1205 12.0329 59.1323C11.8138 58.1441 11.9263 57.1198 12.3562 56.189C12.7861 55.2582 13.514 54.4626 14.448 53.9029C15.382 53.3431 16.4801 53.0444 17.6034 53.0444" stroke="#007050" stroke-width="4.25979" stroke-linecap="round" stroke-linejoin="round"/>
<path d="M2.90962 73.2382C16.9579 72.4559 12.9889 61.9795 12.9889 61.9795C12.9889 61.9795 0.727332 60.7661 2.90962 73.2382Z" stroke="#007050" stroke-width="4.25979" stroke-linecap="round" stroke-linejoin="round"/>
<path d="M32.9382 52.4072C32.9382 52.4072 34.868 57.535 30.5518 59.4437C27.6795 60.7132 24.7896 60.6735 23.2822 58.1383" stroke="#007050" stroke-width="4.25979" stroke-linecap="round" stroke-linejoin="round"/>
<path d="M23.548 44.6229C13.2381 26.5734 39.7757 9.21351 39.7757 9.21351C39.7757 9.21351 61.245 -5.33922 83.9679 10.0982C89.2565 13.6907 107.873 28.976 98.9348 44.6229" stroke="#007050" stroke-width="4.25979" stroke-linecap="round" stroke-linejoin="round"/>
<path d="M98.9346 44.6228C99.7392 44.1941 100.652 43.9557 101.587 43.93C102.523 43.9044 103.45 44.0924 104.283 44.4763C105.115 44.8601 105.825 45.4274 106.346 46.1248C106.866 46.8222 107.181 47.6268 107.261 48.4633" stroke="#007050" stroke-width="4.25979" stroke-linecap="round" stroke-linejoin="round"/>
<path d="M95.9566 59.5678C95.3107 59.7905 94.6215 59.8943 93.93 59.873C93.2386 59.8516 92.5589 59.7056 91.9317 59.4437C87.6155 57.535 89.5453 52.4072 89.5453 52.4072" stroke="#007050" stroke-width="4.25979" stroke-linecap="round" stroke-linejoin="round"/>
<path d="M60.7091 15.1812C73.5799 15.1812 84.0403 26.3489 84.0403 40.1349C84.0403 53.921 73.5799 65.1085 60.7091 65.1085C47.8162 65.1085 37.3779 53.921 37.3779 40.1349C37.3755 38.1702 37.5904 36.21 38.0193 34.2833" stroke="#007050" stroke-width="4.25979" stroke-linecap="round" stroke-linejoin="round"/>
<path d="M91.9665 66.945C95.7165 71.0618 94.6014 77.4452 94.6014 77.4452C94.6014 77.4452 87.4057 77.1528 83.6546 73.0359C79.9035 68.9189 81.0196 62.5356 81.0196 62.5356C81.0196 62.5356 88.2164 62.8314 91.9665 66.945Z" stroke="#007050" stroke-width="4.25979" stroke-linecap="round" stroke-linejoin="round"/>
<path d="M100.816 75.874C97.5874 78.8633 95.5984 86.9404 97.3335 95.7783" stroke="#007050" stroke-width="4.25979" stroke-linecap="round" stroke-linejoin="round"/>
<path d="M106.854 51.7647C106.833 51.2118 106.933 50.6605 107.149 50.1424C107.366 49.6242 107.693 49.1493 108.114 48.7448C108.535 48.3402 109.04 48.014 109.602 47.7847C110.163 47.5554 110.769 47.4275 111.386 47.4083C112.002 47.3891 112.617 47.479 113.194 47.6729C113.772 47.8667 114.301 48.1608 114.752 48.5382C115.203 48.9156 115.567 49.3689 115.823 49.8724C116.078 50.3759 116.221 50.9196 116.242 51.4725" stroke="#007050" stroke-width="4.25979" stroke-linecap="round" stroke-linejoin="round"/>
<path d="M121.621 65.0106C122.239 65.0324 122.856 64.9445 123.436 64.7519C124.016 64.5592 124.548 64.2657 125.002 63.8881C125.455 63.5105 125.821 63.0563 126.078 62.5516C126.335 62.0469 126.478 61.5016 126.5 60.947C126.521 60.3925 126.42 59.8396 126.203 59.3201C125.985 58.8006 125.656 58.3247 125.233 57.9199C124.81 57.515 124.302 57.1891 123.738 56.9609C123.174 56.7326 122.565 56.6065 121.947 56.5898" stroke="#007050" stroke-width="4.25979" stroke-linecap="round" stroke-linejoin="round"/>
<path d="M121.948 56.5899C122.549 55.8874 122.845 55.0128 122.781 54.129C122.716 53.2452 122.296 52.4126 121.598 51.7863C120.899 51.16 119.971 50.7829 118.986 50.7251C118.001 50.6673 117.025 50.9328 116.242 51.4722" stroke="#007050" stroke-width="4.25979" stroke-linecap="round" stroke-linejoin="round"/>
<path d="M115.916 70.127C116.699 70.6664 117.674 70.9319 118.66 70.8741C119.645 70.8164 120.573 70.4392 121.271 69.8129C121.97 69.1866 122.39 68.354 122.455 67.4702C122.519 66.5864 122.223 65.7118 121.622 65.0093" stroke="#007050" stroke-width="4.25979" stroke-linecap="round" stroke-linejoin="round"/>
<path d="M115.913 70.124C115.95 71.2376 115.494 72.3192 114.645 73.1322C113.796 73.9452 112.622 74.4233 111.381 74.462C110.139 74.5006 108.932 74.0967 108.021 73.3385C107.111 72.5803 106.573 71.5297 106.524 70.4164" stroke="#007050" stroke-width="4.25979" stroke-linecap="round" stroke-linejoin="round"/>
<path d="M100.825 65.2939C100.224 65.9964 99.9277 66.8711 99.9921 67.7549C100.056 68.6387 100.477 69.4713 101.175 70.0976C101.873 70.7239 102.802 71.101 103.787 71.1588C104.772 71.2166 105.748 70.951 106.531 70.4117" stroke="#007050" stroke-width="4.25979" stroke-linecap="round" stroke-linejoin="round"/>
<path d="M106.855 51.7645C103.199 49.2957 97.6889 53.153 100.488 56.8774" stroke="#007050" stroke-width="4.25979" stroke-linecap="round" stroke-linejoin="round"/>
<path d="M100.817 65.3012C99.5753 65.3347 98.3697 64.9258 97.4635 64.164C96.5573 63.4022 96.0244 62.3495 95.9813 61.2362C95.9383 60.1229 96.3885 59.0396 97.2337 58.2233C98.0788 57.407 99.25 56.9241 100.491 56.8804" stroke="#007050" stroke-width="4.25979" stroke-linecap="round" stroke-linejoin="round"/>
<path d="M111.22 65.013C113.528 65.013 115.399 63.3349 115.399 61.2648C115.399 59.1947 113.528 57.5166 111.22 57.5166C108.912 57.5166 107.041 59.1947 107.041 61.2648C107.041 63.3349 108.912 65.013 111.22 65.013Z" stroke="#007050" stroke-width="3.19484" stroke-miterlimit="10"/>
<path d="M38.0127 34.2878C38.0127 34.2878 49.3576 29.0565 60.7025 15.1748" stroke="#007050" stroke-width="4.25979" stroke-linecap="round" stroke-linejoin="round"/>
<path d="M75.0272 36.8877C75.0272 37.7375 74.765 38.5682 74.2737 39.2748C73.7824 39.9815 73.0841 40.5322 72.2671 40.8574C71.4501 41.1826 70.5511 41.2677 69.6838 41.1019C68.8165 40.9361 68.0198 40.5269 67.3945 39.926C66.7692 39.3251 66.3434 38.5594 66.1709 37.7259C65.9984 36.8924 66.0869 36.0285 66.4253 35.2433C66.7637 34.4582 67.3368 33.7871 68.0721 33.315C68.8073 32.8428 69.6718 32.5908 70.5561 32.5908C71.7418 32.5912 72.8788 33.044 73.7172 33.8498C74.5556 34.6555 75.0268 35.7482 75.0272 36.8877Z" fill="#007050"/>
<path d="M57.1424 36.8877C57.1424 37.7375 56.8802 38.5682 56.3889 39.2748C55.8976 39.9815 55.1993 40.5322 54.3823 40.8574C53.5653 41.1826 52.6664 41.2677 51.799 41.1019C50.9317 40.9361 50.1351 40.5269 49.5098 39.926C48.8845 39.3251 48.4586 38.5594 48.2861 37.7259C48.1136 36.8924 48.2021 36.0285 48.5405 35.2433C48.8789 34.4582 49.452 33.7871 50.1873 33.315C50.9226 32.8428 51.787 32.5908 52.6713 32.5908C53.857 32.5912 54.994 33.044 55.8324 33.8498C56.6708 34.6555 57.142 35.7482 57.1424 36.8877Z" fill="#007050"/>
<path d="M61.6143 58.3769C58.9306 58.352 56.2906 57.7206 53.9077 56.5338C53.6451 56.4076 53.4109 56.2329 53.2186 56.0197C53.0262 55.8066 52.8794 55.5591 52.7866 55.2914C52.6937 55.0237 52.6567 54.7411 52.6775 54.4596C52.6983 54.1782 52.7766 53.9034 52.908 53.651C53.0393 53.3987 53.221 53.1736 53.4428 52.9888C53.6647 52.8039 53.9222 52.6628 54.2007 52.5736C54.4793 52.4844 54.7734 52.4488 55.0663 52.4688C55.3591 52.4888 55.645 52.5641 55.9076 52.6903C57.6611 53.5991 59.6221 54.0749 61.6143 54.0749C63.6066 54.0749 65.5676 53.5991 67.321 52.6903C67.8514 52.4354 68.4654 52.3934 69.0279 52.5736C69.5905 52.7538 70.0555 53.1413 70.3207 53.651C70.5859 54.1607 70.6296 54.7508 70.4421 55.2914C70.2546 55.832 69.8513 56.2789 69.321 56.5338C66.9381 57.7206 64.2981 58.352 61.6143 58.3769Z" fill="#007050"/>
</svg>
